<svg xmlns="http://www.w3.org/2000/svg" viewBox="0 0 512 512"><g fill="#333"><path d="M17.655 44.138C7.91 44.138 0 52.039 0 61.793v388.414c0 9.754 7.91 17.655 17.655 17.655h229.517l-52.966-52.966 52.966-52.966-52.966-52.966L247.172 256l-52.966-52.966 52.966-52.966-52.966-52.966 52.966-52.966H17.655z"/><path d="M494.345 44.138H300.138l-52.966 52.966 52.966 52.966-52.966 52.966L300.138 256l-52.966 52.966 52.966 52.966-52.966 52.966 52.966 52.966h194.207c9.746 0 17.655-7.901 17.655-17.655V61.793c0-9.754-7.91-17.655-17.655-17.655"/></g><path d="M0 432.552h35.31v-35.311H0zm70.621 0h52.965v-35.311H70.621zm229.517 0h52.965v-35.311h-52.965zm88.276 0h52.965v-35.311h-52.965zm88.276 0H512v-35.311h-35.31zM0 114.759h35.31V79.448H0zm70.621 0h52.965V79.448H70.621zm229.517 0h52.965V79.448h-52.965zm88.276 0h52.965V79.448h-52.965zm88.276 0H512V79.448h-35.31zM158.897 79.448v35.311h52.965l-17.655-17.656 17.655-17.655zm0 317.793v35.311h52.965l-17.655-17.655 17.655-17.656z" fill="#41494f"/></svg>